inDegrees=no
num_controls=7
num_derivatives=13
num_iterations=105
num_multipliers=7
num_parameters=0
num_slacks=7
num_states=26
objective=0.431113
objective_accelerations=0.049975
objective_balance=0.006874
objective_effort=0.031212
objective_height=0.341881
objective_ligament=0.001171
solver_duration=1351.168963
status=Solve_Succeeded
success=true
DataType=double
version=3
OpenSimVersion=4.5
endheader
time	/jointset/ground_pelvis/pelvis_tilt/value	/jointset/ground_pelvis/pelvis_tx/value	/jointset/ground_pelvis/pelvis_ty/value	/jointset/hip_l/hip_flexion_l/value	/jointset/hip_l/hip_adduction_l/value	/jointset/hip_l/hip_rotation_l/value	/jointset/back/lumbar_extension/value	/jointset/patellofemoral_l/patellar_flexion_l/value	/jointset/knee_l/knee_flexion_l/value	/jointset/knee_l/knee_adduction_l/value	/jointset/knee_l/knee_rotation_l/value	/jointset/ankle_l/ankle_angle_l/value	/jointset/subtalar_l/subtalar_angle_l/value	/jointset/ground_pelvis/pelvis_tilt/speed	/jointset/ground_pelvis/pelvis_tx/speed	/jointset/ground_pelvis/pelvis_ty/speed	/jointset/hip_l/hip_flexion_l/speed	/jointset/hip_l/hip_adduction_l/speed	/jointset/hip_l/hip_rotation_l/speed	/jointset/back/lumbar_extension/speed	/jointset/patellofemoral_l/patellar_flexion_l/speed	/jointset/knee_l/knee_flexion_l/speed	/jointset/knee_l/knee_adduction_l/speed	/jointset/knee_l/knee_rotation_l/speed	/jointset/ankle_l/ankle_angle_l/speed	/jointset/subtalar_l/subtalar_angle_l/speed	/forceset/tau_hip_flexion_l	/forceset/tau_hip_adduction_l	/forceset/tau_hip_rotation_l	/forceset/tau_knee_flexion_l	/forceset/tau_ankle_angle_l	/forceset/tau_subtalar_angle_l	/forceset/tau_lumbar_extension	lambda_cid13_p0	lambda_cid13_p1	lambda_cid13_p2	lambda_cid13_p3	lambda_cid13_p4	lambda_cid13_p5	lambda_cid14_p0	/jointset/ground_pelvis/pelvis_tilt/accel	/jointset/ground_pelvis/pelvis_tx/accel	/jointset/ground_pelvis/pelvis_ty/accel	/jointset/hip_l/hip_flexion_l/accel	/jointset/hip_l/hip_adduction_l/accel	/jointset/hip_l/hip_rotation_l/accel	/jointset/back/lumbar_extension/accel	/jointset/patellofemoral_l/patellar_flexion_l/accel	/jointset/knee_l/knee_flexion_l/accel	/jointset/knee_l/knee_adduction_l/accel	/jointset/knee_l/knee_rotation_l/accel	/jointset/ankle_l/ankle_angle_l/accel	/jointset/subtalar_l/subtalar_angle_l/accel	gamma_cid13_p0	gamma_cid13_p1	gamma_cid13_p2	gamma_cid13_p3	gamma_cid13_p4	gamma_cid13_p5	gamma_cid14_p0
0	-0.1567650355739891	0.05730847129820654	0.8978860658111579	0.3774924667018715	-0.2607481186671088	-0.2451869426716668	-0.01265067647494873	0.03223648243721146	0.03223648243721463	-0.1745329008530999	0.1480181091992965	-0.04231377076293093	-0.01119685292258577	0	0	0	0	0	0	0	0	0	0	0	0	0	0.1544855042092683	-0.07866841143273759	-0.05160848573111473	-0.3395176606633157	0.3833606143940514	-0.05548247456869493	-0.09166725446797286	81.26971808267848	5.490359150335433	3.720644400727964	-34.61091414533021	-590.8604072370966	-66.02371913805092	-38.27069796050211	-2.919801751549433	-1.297985100122623	-0.9624138580073685	10.8739081516783	-1.34268880931203	3.403389766760762	-5.482474786097603	10.70214762881569	10.7021476288158	0.03387044177791693	0.3433459016065972	2.980718977071009	-0.6795451723242091	-6.102180155877147e-08	3.822679894471756e-08	1.42485992613237e-07	3.14015275542211e-08	-2.305470116834161e-08	-1.221099013096502e-07	-2.27739692869816e-08
0.01	-0.1569037523678667	0.05724257611903193	0.8978390170755158	0.3780228428266548	-0.2608147525789475	-0.2450174450632499	-0.01292570767154695	0.03275963089582407	0.03275963089582738	-0.1745328316756234	0.1480318771151125	-0.04217104367212354	-0.01123178617900444	-0.02746346217792452	-0.01331103732628827	-0.009386043048834409	0.1056880724954165	-0.01324337649412809	0.03374427861410365	-0.05464323246196644	0.1041708878032833	0.1041708878032805	4.391894777173248e-05	0.002737603493420161	0.0281828227956823	-0.006989727210832846	0.1399942874967521	-0.08787062962699498	-0.04773687452197773	-0.3147276613469521	0.3419755651473037	-0.03296358846067583	-0.0815419376960808	68.7328294279077	-1.923467427353039	4.707276810915915	-25.18874436787779	-591.2770919656915	-79.53724443857695	-38.28602962827039	-2.617640883203126	-1.367456991993963	-0.9231485273403083	10.35817619161677	-1.30268326786038	3.336641045625729	-5.400796447706772	10.20574332294759	10.20574332294714	-0.005806192333177878	0.2365525746151742	2.682669121364636	-0.7091696605497013	-7.89292173512209e-08	8.492644713597785e-08	1.645861118002812e-07	4.439423842442188e-08	-1.300939735485117e-07	-7.437650212225846e-08	-2.690907663587977e-08
0.02	-0.157308708269979	0.05703961177797234	0.8976988181095814	0.3795984835550248	-0.2610113244954071	-0.2445151658413158	-0.013736280987057	0.03431072502584229	0.0343107250258427	-0.174531415071232	0.1480725380661452	-0.04175736731524986	-0.01133671334054889	-0.05324782164742303	-0.02741383237699622	-0.01863004605846024	0.2090529207165703	-0.02598760092414675	0.06655632270383088	-0.1071084237823684	0.205589134281083	0.2055891342810781	0.0002694853511430504	0.005378607043056984	0.05418985321327711	-0.01399878102514175	0.1255030707842508	-0.09707284782124397	-0.04386526331283719	-0.2899376620305852	0.300590515900557	-0.01044470235264832	-0.07141662092417887	56.2822199392954	-9.355100209494557	5.699837075853322	-15.98919630388699	-590.424129676854	-92.93934391239085	-38.33151894321431	-2.583981209864326	-1.456336645006455	-0.9340058501656592	10.40926329682568	-1.242858396490254	3.216942861885485	-5.046866557784747	10.15161936371896	10.15161936371922	0.07019993289761436	0.3240259128499317	2.545560501453604	-0.6834104930195068	-9.683663314367031e-08	1.316260953272381e-07	1.866862309873254e-07	5.738694929462267e-08	-2.371332459286819e-07	-2.664310293486674e-08	-3.104418398477793e-08
0.03	-0.1579648529999427	0.05669401864218612	0.8974667576875551	0.3821953776387217	-0.2613326613048456	-0.2436893645419402	-0.01506035391177785	0.03686261139590093	0.03686261139590076	-0.1745268275924854	0.1481393164039642	-0.0410913558484942	-0.0115109675189926	-0.07784491121187516	-0.04159922632360393	-0.02776594739075187	0.3098046164386479	-0.03818896367925452	0.0984548477385738	-0.1573478756658657	0.3043342090456501	0.304334209045622	0.0006545315264252737	0.007970128310629182	0.0789513457797185	-0.02078201132760161	0.1209008117288955	-0.09085396241557188	-0.04329382555774824	-0.2863820113354283	0.297534362804776	-0.01409051156026622	-0.06749499948130462	55.16678743878958	-7.726860469400353	5.612087158132121	-15.86634919499139	-590.6590954537735	-88.92913967253558	-38.40566739051071	-2.37714947551051	-1.383793970865682	-0.9010164904788281	9.829917197096828	-1.195187540482547	3.153918298360852	-4.958741679359653	9.667868155599272	9.66786815559573	0.02367609408752038	0.2256517725924342	2.432273214595522	-0.6653139520687451	-1.23312849475504e-07	1.364401521292394e-07	2.285055930042296e-07	8.148069016998775e-08	-3.588668387407919e-07	-3.321323614483125e-08	-3.886372194151876e-08
0.04	-0.1588628839547035	0.05620974092665854	0.8971438114090621	0.3857841475770825	-0.2617732942069275	-0.2425490557973999	-0.0168760727904788	0.0403883318381586	0.04038833183815887	-0.1745181858251341	0.1482317972622386	-0.04017956354000281	-0.01175096093110283	-0.1016250666073302	-0.05515074832526672	-0.0368072173517882	0.4074280916486452	-0.04984681945282345	0.1294578117370038	-0.2054376145784711	0.4003559487211643	0.4003559487211152	0.001080343071467738	0.01051911113346257	0.1033460215604062	-0.02714662775844194	0.1162985526735544	-0.08463507700989625	-0.04272238780263811	-0.2828263606402688	0.2944782097089966	-0.01773632076788061	-0.06357337803842045	54.13176361031091	-6.111384431719222	5.524873532936439	-15.94919450833457	-589.7286960087893	-84.80646396063192	-38.50654351380795	-2.420594376064988	-1.329562256017385	-0.9150795759145971	9.783619194409555	-1.134157000182505	3.037830654622906	-4.61692396360641	9.606952345908374	9.606952345909091	0.07835300684961996	0.3155182239021616	2.472197144302955	-0.5996877186955986	-1.499657421071188e-07	1.40390588490225e-07	2.707315373475226e-07	1.058033182619542e-07	-4.809034072319111e-07	-4.090302981659693e-08	-4.675922753965841e-08
0.05	-0.1599948666115831	0.05559273702923245	0.8967306677329072	0.3903346101037468	-0.2623275669769255	-0.2411032211079549	-0.01916175269571705	0.04486110511971327	0.04486110511971428	-0.1745048720371922	0.1483497077166894	-0.03902598360125799	-0.01205240606945763	-0.1246204015121829	-0.06817986355668088	-0.0458238364350485	0.5021773360588296	-0.06089638651828447	0.1595633411599418	-0.2513597476859902	0.4937358329090335	0.4937358329090364	0.001599856800151265	0.01304721769439161	0.1272576157437543	-0.03306764459260419	0.1099613313325656	-0.08214566046535254	-0.04165309198410104	-0.27671173958284	0.2856924977284834	-0.0158520354490919	-0.05855589155548684	51.43732401854545	-6.516224183293406	5.655974703840198	-14.60919137196802	-589.0010677623651	-84.60572752769838	-38.6317780473479	-2.216351549580387	-1.27903965877322	-0.895398024739582	9.247497486175897	-1.073688719580064	2.975006480315604	-4.529065166960319	9.134084668733276	9.134084668740442	0.0414165541738959	0.2190542916858602	2.333777794343263	-0.5771467929321535	-1.661538881792714e-07	1.528322763833243e-07	2.895714640367426e-07	1.23288737332592e-07	-5.632636154727973e-07	-3.309927710590964e-08	-4.97687944065056e-08
0.06	-0.1613522723178859	0.05484755127907855	0.8962272688758779	0.3958179491588855	-0.2629890018495487	-0.2393607126454431	-0.02189649536855753	0.05025379288584712	0.0502537928858462	-0.1744858299123011	0.1484924187206496	-0.0376366602728811	-0.01241082900158518	-0.1467096764924402	-0.08078711887083059	-0.05485825352666176	0.5940033973431349	-0.07127923997783131	0.1887925663503346	-0.2952501680989462	0.5843388456371844	0.5843388456372279	0.002226010460682392	0.01547922103522265	0.1504946994868047	-0.03854218651299055	0.103624109991571	-0.07965624392080854	-0.04058379616556347	-0.2705971185254217	0.276906785747965	-0.01396775013030407	-0.05353840507255263	48.8141252592942	-6.932732114628775	5.788018767847904	-13.4576848284575	-587.2345966624944	-84.30572382275973	-38.77884432899934	-2.239382391145983	-1.245190272564414	-0.9186391775851896	9.198982569233658	-1.000814278999681	2.862569808113874	-4.210581424693832	9.0515780539647	9.051578053963166	0.09968099321911592	0.2962975798825544	2.337295056243513	-0.5103927359404113	-1.819014133436572e-07	1.65631490656723e-07	3.074267162984227e-07	1.404862739181213e-07	-6.439532401241999e-07	-2.464316454754013e-08	-5.257263753729836e-08
